<svg width="28" height="27" viewBox="0 0 28 27" fill="none" xmlns="http://www.w3.org/2000/svg">
<path d="M1.30042 12.4949L15.0965 0.758126C15.2024 0.668641 15.3375 0.61853 15.4799 0.61853L18.7117 0.61853C18.9819 0.61853 19.106 0.947833 18.9015 1.11964L6.11334 12.0009L27.483 12.0009C27.6437 12.0009 27.7751 12.1298 27.7751 12.2873V14.4349C27.7751 14.5924 27.6437 14.7213 27.483 14.7213L6.11699 14.7213L18.9052 25.6026C19.1097 25.7779 18.9855 26.1037 18.7153 26.1037H15.374C15.3046 26.1037 15.2353 26.0786 15.1841 26.0321L1.30042 14.2273C1.174 14.1196 1.07264 13.9865 1.00318 13.837C0.933718 13.6876 0.897776 13.5253 0.897776 13.3611C0.897776 13.1969 0.933718 13.0346 1.00318 12.8852C1.07264 12.7357 1.174 12.6026 1.30042 12.4949Z" fill="white"/>
</svg>
