<svg width="28" height="27" viewBox="0 0 28 27" fill="none" xmlns="http://www.w3.org/2000/svg">
<path d="M27.4089 14.5052L13.6007 26.242C13.4948 26.3315 13.3595 26.3816 13.217 26.3816L9.9824 26.3816C9.71194 26.3816 9.58767 26.0523 9.79235 25.8805L22.5918 14.9992L1.20334 14.9992C1.04253 14.9992 0.910951 14.8703 0.910951 14.7128L0.910951 12.5652C0.910951 12.4077 1.04253 12.2789 1.20334 12.2789L22.5881 12.2789L9.78869 1.39756C9.58402 1.22217 9.70829 0.896443 9.97875 0.896443L13.323 0.896443C13.3924 0.896444 13.4619 0.9215 13.513 0.968032L27.4089 12.7728C27.5355 12.8806 27.6369 13.0136 27.7064 13.1631C27.776 13.3125 27.8119 13.4748 27.8119 13.639C27.8119 13.8032 27.776 13.9655 27.7064 14.115C27.6369 14.2644 27.5355 14.3975 27.4089 14.5052Z" fill="white"/>
</svg>
